<?xml version="1.0" standalone="no"?>
<!DOCTYPE svg PUBLIC "-//W3C//DTD SVG 20010904//EN"
 "http://www.w3.org/TR/2001/REC-SVG-20010904/DTD/svg10.dtd">
<svg version="1.0" xmlns="http://www.w3.org/2000/svg"
 width="614.000000pt" height="164.000000pt" viewBox="0 0 614.000000 164.000000"
 preserveAspectRatio="xMidYMid meet">
<metadata>
Created by potrace 1.16, written by Peter Selinger 2001-2019
</metadata>
<g transform="translate(0.000000,164.000000) scale(0.100000,-0.100000)"
fill="#000000" stroke="none">
<path d="M0 820 l0 -820 3070 0 3070 0 0 820 0 820 -3070 0 -3070 0 0 -820z
m1968 593 c71 -35 116 -93 132 -168 7 -36 10 -159 8 -362 -3 -301 -4 -309 -27
-356 -46 -94 -146 -144 -266 -135 -72 6 -130 34 -173 82 -56 64 -62 105 -62
446 0 341 6 382 62 446 77 88 208 107 326 47z m-692 -246 c177 -90 212 -320
72 -464 -57 -58 -123 -85 -210 -85 -245 0 -375 279 -223 478 27 35 78 70 134
91 56 21 165 11 227 -20z m2780 0 c178 -90 213 -333 67 -468 -63 -58 -120 -81
-203 -81 -248 0 -378 277 -225 478 27 35 78 70 134 91 56 21 165 11 227 -20z
m-3806 -127 l0 -150 175 0 175 0 0 150 0 150 50 0 50 0 0 -395 0 -395 -50 0
-50 0 0 195 0 195 -175 0 -175 0 0 -196 0 -195 -47 3 -48 3 -3 393 -2 392 50
0 50 0 0 -150z m2400 106 c0 -44 0 -44 -42 -51 -53 -9 -102 -55 -117 -110 -6
-22 -11 -115 -11 -206 0 -122 -4 -177 -15 -210 -32 -92 -112 -155 -205 -161
l-45 -3 -3 41 c-3 41 -2 42 35 49 115 21 132 60 133 291 0 125 4 184 16 223
29 99 128 177 227 180 25 1 27 -1 27 -43z m510 -1 l0 -45 -150 0 -150 0 0
-180 0 -180 125 0 125 0 0 -45 0 -45 -125 0 -125 0 0 -80 0 -80 150 0 150 0 0
-45 0 -45 -200 0 -200 0 0 395 0 395 200 0 200 0 0 -45z m1600 0 l0 -45 -150
0 -150 0 0 -180 0 -180 125 0 125 0 0 -45 0 -45 -125 0 -125 0 0 -125 0 -125
-50 0 -50 0 0 395 0 395 200 0 200 0 0 -45z m600 -350 l0 -395 -50 0 -50 0 0
395 0 395 50 0 50 0 0 -395z m610 350 l0 -45 -100 0 -100 0 0 -350 0 -350 -50
0 -50 0 0 350 0 350 -95 0 -95 0 0 45 0 45 245 0 245 0 0 -45z m-4582 -697
l-3 -43 -242 -3 -243 -2 0 45 0 45 246 0 245 0 -3 -42z m2780 0 l-3 -43 -245
0 -245 0 -3 43 -3 42 251 0 251 0 -3 -42z"/>
<path d="M1765 1341 c-27 -12 -48 -32 -65 -62 l-25 -44 0 -315 c0 -299 1 -317
21 -354 31 -59 64 -79 137 -84 80 -4 123 17 155 78 21 43 22 52 22 359 0 297
-1 317 -21 357 -15 31 -32 48 -63 63 -23 12 -45 21 -49 21 -4 0 -8 -82 -9
-182 l-3 -183 -25 0 -25 0 -5 182 -5 182 -40 -18z"/>
<path d="M1065 1094 c-46 -23 -93 -74 -106 -112 -6 -19 -9 -60 -7 -92 8 -109
82 -180 188 -180 163 0 250 178 157 319 -47 70 -161 102 -232 65z"/>
<path d="M3845 1096 c-38 -17 -91 -73 -104 -109 -25 -65 -6 -172 37 -220 30
-34 89 -57 142 -57 114 0 193 82 193 201 0 109 -75 190 -181 196 -35 2 -69 -2
-87 -11z"/>
</g>
</svg>
