<?xml version="1.0" standalone="no"?>
<!DOCTYPE svg PUBLIC "-//W3C//DTD SVG 20010904//EN"
 "http://www.w3.org/TR/2001/REC-SVG-20010904/DTD/svg10.dtd">
<svg version="1.0" xmlns="http://www.w3.org/2000/svg"
 width="380.000000pt" height="116.000000pt" viewBox="0 0 380.000000 116.000000"
 preserveAspectRatio="xMidYMid meet">
<metadata>
Created by potrace 1.16, written by Peter Selinger 2001-2019
</metadata>
<g transform="translate(0.000000,116.000000) scale(0.100000,-0.100000)"
fill="#000000" stroke="none">
<path d="M0 580 l0 -580 1900 0 1900 0 0 580 0 580 -1900 0 -1900 0 0 -580z
m1245 320 c59 -37 65 -63 65 -300 0 -233 -3 -250 -62 -292 -45 -31 -143 -33
-184 -2 -66 49 -69 58 -72 262 -2 102 -1 205 3 229 7 49 45 99 90 120 39 18
117 10 160 -17z m-457 -135 c43 -19 79 -50 98 -87 21 -40 18 -124 -7 -167 -87
-156 -331 -96 -332 82 -2 133 122 221 241 172z m1700 0 c73 -31 114 -89 115
-164 2 -212 -306 -247 -352 -40 -5 23 -8 47 -6 53 2 6 6 23 9 38 13 60 102
127 169 128 15 0 44 -7 65 -15z m-2308 -85 l0 -90 105 0 105 0 0 90 0 90 30 0
30 0 0 -240 0 -240 -30 0 -30 0 0 120 0 120 -105 0 -105 0 0 -120 0 -120 -30
0 -30 0 0 240 0 240 30 0 30 0 0 -90z m1468 63 c-2 -21 -10 -29 -35 -35 -56
-14 -67 -45 -73 -193 -4 -102 -9 -137 -23 -158 -23 -35 -57 -57 -102 -64 -35
-6 -37 -5 -33 22 2 23 10 31 35 37 53 14 63 39 63 158 0 118 12 174 43 209 26
27 72 50 105 51 20 0 23 -4 20 -27z m310 0 c-3 -28 -3 -28 -90 -31 l-88 -3 0
-104 0 -105 75 0 75 0 0 -30 0 -30 -75 0 -75 0 0 -50 0 -50 90 0 c89 0 90 0
90 -25 l0 -25 -120 0 -120 0 0 240 0 240 121 0 120 0 -3 -27z m980 0 c-3 -28
-3 -28 -90 -31 l-88 -3 0 -104 0 -105 75 0 75 0 0 -30 0 -30 -75 0 -75 0 0
-75 0 -75 -30 0 -30 0 0 240 0 240 121 0 120 0 -3 -27z m372 -213 l0 -240 -30
0 -30 0 0 240 0 240 30 0 30 0 0 -240z m368 213 c-3 -27 -6 -28 -60 -31 l-58
-3 0 -209 0 -210 -30 0 -30 0 0 210 0 210 -60 0 -60 0 0 30 0 30 151 0 150 0
-3 -27z m-1098 -428 l0 -25 -155 0 -155 0 0 25 0 25 155 0 155 0 0 -25z"/>
<path d="M1079 844 c-24 -25 -24 -27 -24 -239 0 -209 0 -214 23 -238 30 -32
74 -41 118 -22 56 23 64 56 64 268 0 175 -1 186 -23 218 -12 19 -33 35 -45 37
-22 3 -22 1 -22 -107 0 -92 -3 -111 -15 -111 -12 0 -15 19 -15 110 0 100 -2
110 -18 110 -10 0 -29 -12 -43 -26z"/>
<path d="M644 686 c-50 -50 -50 -122 0 -172 49 -49 113 -49 162 0 28 28 34 42
34 75 0 81 -45 131 -118 131 -37 0 -50 -6 -78 -34z"/>
<path d="M2344 686 c-30 -30 -34 -40 -34 -86 0 -46 4 -56 34 -86 29 -29 41
-34 81 -34 40 0 52 5 81 34 30 30 34 40 34 86 0 46 -4 56 -34 86 -29 29 -41
34 -81 34 -40 0 -52 -5 -81 -34z"/>
</g>
</svg>
